HIERARCHY
ROOT Hips
{
 OFFSET 0.000000 0.000000 0.000000
 CHANNELS 6 Xposition Yposition Zposition Yrotation Xrotation Zrotation
 JOINT Chest
 {
  OFFSET 0.000000 10.080317 -0.001081
  CHANNELS 3 Yrotation Xrotation Zrotation
  JOINT Chest2
  {
   OFFSET 0.000000 11.096852 0.001963
   CHANNELS 3 Yrotation Xrotation Zrotation
   JOINT Chest3
   {
    OFFSET 0.000000 10.026525 0.000000
    CHANNELS 3 Yrotation Xrotation Zrotation
    JOINT Chest4
    {
     OFFSET 0.000000 10.026525 0.000000
     CHANNELS 3 Yrotation Xrotation Zrotation
     JOINT Neck
     {
      OFFSET 0.000000 14.108171 0.000000
      CHANNELS 3 Yrotation Xrotation Zrotation
      JOINT Head
      {
       OFFSET 0.000000 9.333493 0.004668
       CHANNELS 3 Yrotation Xrotation Zrotation
       End Site
       {
        OFFSET 0.000000 17.851786 0.002438
       }
      }
     }
     JOINT RightCollar
     {
      OFFSET -3.071622 7.873185 0.000000
      CHANNELS 3 Yrotation Xrotation Zrotation
      JOINT RightShoulder
      {
       OFFSET -14.378659 0.000000 0.000000
       CHANNELS 3 Yrotation Xrotation Zrotation
       JOINT RightElbow
       {
        OFFSET -30.778728 0.000000 0.000000
        CHANNELS 3 Yrotation Xrotation Zrotation
        JOINT RightWrist
        {
         OFFSET -25.164217 0.000000 0.000000
         CHANNELS 3 Yrotation Xrotation Zrotation
         End Site
         {
          OFFSET -18.796788 0.000000 0.000000
         }
        }
       }
      }
     }
     JOINT LeftCollar
     {
      OFFSET 3.071622 7.873185 0.000000
      CHANNELS 3 Yrotation Xrotation Zrotation
      JOINT LeftShoulder
      {
       OFFSET 14.378659 0.000000 0.000000
       CHANNELS 3 Yrotation Xrotation Zrotation
       JOINT LeftElbow
       {
        OFFSET 30.778728 0.000000 0.000000
        CHANNELS 3 Yrotation Xrotation Zrotation
        JOINT LeftWrist
        {
         OFFSET 25.164217 0.000000 0.000000
         CHANNELS 3 Yrotation Xrotation Zrotation
         End Site
         {
          OFFSET 18.796788 0.000000 0.000000
         }
        }
       }
      }
     }
    }
   }
  }
 }
 JOINT RightHip
 {
  OFFSET -8.194923 0.005295 0.000540
  CHANNELS 3 Yrotation Xrotation Zrotation
  JOINT RightKnee
  {
   OFFSET 0.000000 -42.473320 -0.000511
   CHANNELS 3 Yrotation Xrotation Zrotation
   JOINT RightAnkle
   {
    OFFSET 0.000000 -41.474259 -0.000865
    CHANNELS 3 Yrotation Xrotation Zrotation
    JOINT RightToe
    {
     OFFSET 0.000000 -7.354994 16.712725
     CHANNELS 3 Yrotation Xrotation Zrotation
     End Site
     {
      OFFSET 0.000000 -1.553903 6.764158
     }
    }
   }
  }
 }
 JOINT LeftHip
 {
  OFFSET 8.194923 0.005295 0.000540
  CHANNELS 3 Yrotation Xrotation Zrotation
  JOINT LeftKnee
  {
   OFFSET 0.000000 -42.473320 -0.000511
   CHANNELS 3 Yrotation Xrotation Zrotation
   JOINT LeftAnkle
   {
    OFFSET 0.000000 -41.474259 -0.000865
    CHANNELS 3 Yrotation Xrotation Zrotation
    JOINT LeftToe
    {
     OFFSET 0.000000 -7.354994 16.712725
     CHANNELS 3 Yrotation Xrotation Zrotation
     End Site
     {
      OFFSET 0.000000 -1.553903 6.764158
     }
    }
   }
  }
 }
}
MOTION
Frames: 12
Frame Time: 0.016667
0.000000 91.111157 0.000000 0.000000 -5.826342 0.000000 0.000000 11.116423 0.000000 0.000000 -5.290081 0.000000 0.000000 0.000000 0.000000 0.000000 0.000000 0.000000 0.000000 12.665069 0.000000 0.000000 0.575450 0.000000 0.000000 0.000000 0.000000 0.000000 0.000000 0.000000 2.337306 0.000000 0.000000 -2.337306 0.000000 0.000000 0.000000 0.000000 0.000000 0.000000 0.000000 0.000000 -2.337306 0.000000 0.000000 2.337306 0.000000 0.000000 0.000000 8.578828 0.000000 0.000000 1.905768 0.000000 0.000000 -4.658254 0.000000 0.000000 0.000000 0.000000 0.000000 8.578828 0.000000 0.000000 1.905768 0.000000 0.000000 -4.658254 0.000000 0.000000 0.000000 0.000000
-41.905351 90.027381 -74.725365 -18.079388 -12.981725 0.895124 -1.697558 6.047932 1.440153 -0.777580 2.691720 0.693257 -0.777580 2.691720 0.693257 -0.586134 2.017915 0.523275 -1.333248 22.509879 0.022043 -2.412151 5.628212 0.403951 -6.345352 1.206451 9.656256 0.875733 3.413956 60.621591 41.980030 18.045882 25.645935 -6.131957 1.202075 -15.984648 -9.158498 0.645077 -8.998362 -0.993974 -16.003546 -69.646895 -26.160526 28.055652 -22.440082 9.277203 10.793612 18.530533 2.891011 12.705131 -1.491269 -10.259007 22.573491 -4.137583 1.361816 -21.709544 4.914733 -0.209219 -0.148589 -0.123018 5.416663 0.065626 11.929482 1.779770 7.606236 1.356726 2.611281 7.252931 -11.437839 0.045679 -0.028116 -0.176788
-41.895877 90.049304 -74.636045 -18.263818 -12.901610 0.959898 -1.715597 5.942864 1.432429 -0.785168 2.646348 0.687404 -0.785168 2.646348 0.687404 -0.591751 1.983885 0.518864 -1.085589 22.427176 -0.068634 -1.940950 5.469871 0.173848 -6.306984 1.052739 9.755634 0.947803 3.171114 60.606585 42.234877 17.767236 25.806086 -6.026959 1.173881 -16.100482 -9.247175 0.577803 -9.048899 -0.978104 -16.172880 -69.740774 -26.410290 27.903749 -22.476412 9.178393 10.797009 18.572642 2.926219 12.717052 -1.581222 -10.163134 22.459986 -4.119869 1.379797 -21.648776 4.925788 -0.192438 -0.142209 -0.104468 5.517839 0.108577 11.870436 1.812262 7.563071 1.349886 2.701062 7.205460 -11.372896 0.041853 -0.027886 -0.172220
-41.886987 90.068018 -74.553802 -18.369645 -12.827815 1.019476 -1.748772 5.833430 1.422117 -0.799720 2.598593 0.684197 -0.799720 2.598593 0.684197 -0.602599 1.948056 0.516463 -0.849065 22.349491 -0.159069 -1.489433 5.322335 -0.053474 -6.220161 0.972395 9.852138 0.987928 2.922786 60.599408 42.476050 17.508451 25.941177 -5.958854 1.178799 -16.079960 -9.345431 0.556935 -9.121587 -1.035356 -16.328211 -69.835236 -26.677060 27.820463 -22.554956 9.072628 10.818126 18.574758 2.892436 12.735513 -1.668038 -10.082741 22.352871 -4.120411 1.412126 -21.603805 4.940659 -0.191238 -0.134906 -0.094243 5.566080 0.145708 11.808217 1.843821 7.509661 1.337571 2.744483 7.169533 -11.311959 0.043723 -0.026637 -0.166449
-41.886702 90.082994 -74.480999 -18.432546 -12.776352 1.075394 -1.790681 5.742111 1.414918 -0.816906 2.557857 0.683090 -0.816906 2.557857 0.683090 -0.615439 1.917487 0.515654 -0.622356 22.251635 -0.253533 -1.054119 5.138668 -0.285832 -6.106336 0.933056 9.905577 1.018220 2.672241 60.649006 42.718587 17.291643 26.056736 -5.915760 1.175738 -16.031527 -9.428943 0.541951 -9.221470 -1.155138 -16.486976 -69.901274 -26.956036 27.783069 -22.690849 8.994135 10.822955 18.530372 2.824917 12.764906 -1.764973 -10.017610 22.269056 -4.112818 1.464260 -21.572467 4.949519 -0.197095 -0.129695 -0.090060 5.556647 0.198634 11.760483 1.883962 7.455485 1.300154 2.792892 7.143455 -11.244398 0.048721 -0.025697 -0.160964
-41.890954 90.093945 -74.421128 -18.472128 -12.733959 1.133127 -1.816676 5.675351 1.404143 -0.827586 2.528208 0.681243 -0.827586 2.528208 0.681243 -0.623410 1.895241 0.514276 -0.408730 22.138032 -0.346818 -0.642207 4.927036 -0.513098 -5.990926 0.877618 9.968556 1.045128 2.485152 60.734422 42.903020 17.093802 26.082915 -5.862045 1.168147 -16.010862 -9.525130 0.522047 -9.322775 -1.318543 -16.652226 -69.972546 -27.198043 27.789490 -22.844275 8.938688 10.833700 18.469731 2.745091 12.777303 -1.861360 -9.957465 22.228755 -4.107311 1.519009 -21.561684 4.954185 -0.211134 -0.123807 -0.091786 5.533960 0.247961 11.706340 1.935676 7.402931 1.274776 2.829841 7.123196 -11.187628 0.055294 -0.019769 -0.152560
-41.899448 90.104661 -74.371005 -18.500336 -12.709186 1.184591 -1.812823 5.615289 1.391307 -0.825327 2.501202 0.678395 -0.825327 2.501202 0.678395 -0.621676 1.874992 0.512096 -0.207689 22.024221 -0.426366 -0.256282 4.716126 -0.712798 -5.913285 0.868411 10.046890 1.077386 2.286214 60.850386 42.981178 16.943944 26.073354 -5.788823 1.156609 -16.040591 -9.639877 0.513979 -9.405032 -1.480567 -16.805153 -70.082502 -27.423540 27.854997 -23.002032 8.913914 10.842270 18.377686 2.716599 12.782576 -1.937849 -9.957637 22.230050 -4.104025 1.570424 -21.552562 4.947868 -0.227099 -0.130758 -0.088595 5.546594 0.302525 11.654768 1.934844 7.338619 1.267157 2.857896 7.123433 -11.148466 0.061097 -0.021904 -0.144087
-41.914457 90.113907 -74.325238 -18.490907 -12.695313 1.238914 -1.813039 5.567811 1.371163 -0.823143 2.477905 0.671455 -0.823143 2.477905 0.671455 -0.619986 1.857532 0.506853 -0.014148 21.908265 -0.490747 0.112377 4.502085 -0.883695 -5.833886 0.895691 10.112991 1.138168 2.110294 61.006878 42.973461 16.817487 25.973783 -5.731904 1.135907 -16.058260 -9.726267 0.502507 -9.489060 -1.681112 -16.926997 -70.196560 -27.619633 27.949499 -23.137127 8.908530 10.843522 18.276040 2.708513 12.805943 -1.992093 -9.990166 22.224229 -4.116411 1.582588 -21.544993 4.956184 -0.238201 -0.135057 -0.090245 5.584324 0.358825 11.597083 1.908821 7.253081 1.267920 2.851332 7.145419 -11.120810 0.066627 -0.027187 -0.132393
-41.934822 90.119358 -74.280130 -18.424248 -12.672102 1.274155 -1.814272 5.519876 1.357447 -0.822631 2.454381 0.669553 -0.822631 2.454381 0.669553 -0.619570 1.839891 0.505394 0.160299 21.790324 -0.547709 0.444911 4.284936 -1.036475 -5.759022 0.919531 10.155525 1.226009 1.955968 61.192024 42.823845 16.716401 25.812076 -5.697558 1.118611 -16.070551 -9.793553 0.498611 -9.585683 -1.856765 -17.035242 -70.319377 -27.817644 28.067332 -23.300204 8.898105 10.857339 18.186176 2.693434 12.832649 -2.030952 -10.069849 22.206431 -4.121748 1.611485 -21.539881 4.955793 -0.254140 -0.137330 -0.093449 5.635220 0.386467 11.559617 1.836824 7.166888 1.249774 2.832261 7.164973 -11.088103 0.071734 -0.023688 -0.118755
-41.962375 90.122580 -74.239359 -18.332557 -12.639207 1.294333 -1.805741 5.476793 1.344513 -0.817376 2.433842 0.665624 -0.817376 2.433842 0.665624 -0.615593 1.824498 0.502401 0.313735 21.679990 -0.591779 0.736131 4.082175 -1.160515 -5.685479 0.936145 10.206169 1.327825 1.828236 61.387439 42.563607 16.690259 25.603784 -5.656636 1.096539 -16.060293 -9.843761 0.498335 -9.668567 -2.037150 -17.099355 -70.435793 -28.018465 28.140784 -23.452582 8.888361 10.862703 18.118561 2.658178 12.860099 -2.047633 -10.131177 22.167405 -4.128226 1.607046 -21.532294 4.971152 -0.264384 -0.132191 -0.106387 5.712215 0.391830 11.537800 1.733389 7.073695 1.235600 2.782474 7.188834 -11.070808 0.074827 -0.019124 -0.102288
-41.991936 90.125927 -74.197536 -18.199532 -12.604798 1.304962 -1.800605 5.441305 1.335200 -0.813317 2.415821 0.661798 -0.813317 2.415821 0.661798 -0.612516 1.810991 0.499492 0.451425 21.580060 -0.630253 0.997484 3.898920 -1.270329 -5.614210 0.945219 10.258109 1.476960 1.721184 61.553554 42.233476 16.707676 25.380683 -5.654158 1.069732 -16.024051 -9.876022 0.513470 -9.734818 -2.188596 -17.132197 -70.567155 -28.211990 28.172527 -23.596552 8.844324 10.869997 18.077195 2.599727 12.906673 -2.064505 -10.177258 22.099323 -4.112477 1.593867 -21.518936 4.984933 -0.278455 -0.122289 -0.123495 5.785493 0.384332 11.515679 1.593944 6.980322 1.227501 2.724121 7.213497 -11.058176 0.078548 -0.014632 -0.089470
-42.023132 90.129203 -74.158906 -18.057059 -12.550295 1.316502 -1.772312 5.399033 1.310987 -0.802066 2.398616 0.655471 -0.802066 2.398616 0.655471 -0.604036 1.798108 0.494682 0.584592 21.487479 -0.653948 1.246614 3.729389 -1.352396 -5.546903 0.942073 10.332707 1.653041 1.675248 61.696374 41.874764 16.774817 25.133333 -5.679390 1.083217 -15.975417 -9.887935 0.550229 -9.765443 -2.307223 -17.158236 -70.707180 -28.419356 28.203116 -23.764162 8.846367 10.859877 18.057842 2.565895 12.930339 -2.074904 -10.239371 22.036008 -4.094475 1.606371 -21.511601 5.000479 -0.326707 -0.108744 -0.154585 5.855813 0.351062 11.486269 1.469517 6.890456 1.232162 2.642291 7.237478 -11.060784 0.085967 -0.009978 -0.072656
